<svg width="19" height="19" viewBox="0 0 19 19" fill="none" xmlns="http://www.w3.org/2000/svg">
<path d="M9.50544 6.40119C9.27977 6.40119 9.0905 6.32202 8.93762 6.16369C8.78475 6.00536 8.70831 5.80933 8.70831 5.5756C8.70831 5.34187 8.78475 5.14583 8.93762 4.9875C9.0905 4.82917 9.27977 4.75 9.50544 4.75C9.72383 4.75 9.90946 4.82917 10.0623 4.9875C10.2152 5.14583 10.2916 5.34187 10.2916 5.5756C10.2916 5.80933 10.2152 6.00536 10.0623 6.16369C9.90946 6.32202 9.72383 6.40119 9.50544 6.40119ZM9.49452 7.22679C9.83827 7.22679 10.1169 7.50545 10.1169 7.8492V12.8359C10.1169 13.1797 9.83827 13.4583 9.49452 13.4583C9.15077 13.4583 8.87211 13.1797 8.87211 12.8359V7.8492C8.87211 7.50545 9.15077 7.22679 9.49452 7.22679Z" fill="url(#paint0_radial)"/>
<path fill-rule="evenodd" clip-rule="evenodd" d="M9.5 18.4571C14.4469 18.4571 18.4571 14.4469 18.4571 9.5C18.4571 4.55311 14.4469 0.542857 9.5 0.542857C4.55311 0.542857 0.542857 4.55311 0.542857 9.5C0.542857 14.4469 4.55311 18.4571 9.5 18.4571ZM9.5 19C14.7467 19 19 14.7467 19 9.5C19 4.25329 14.7467 0 9.5 0C4.25329 0 0 4.25329 0 9.5C0 14.7467 4.25329 19 9.5 19Z" fill="url(#paint1_radial)"/>
<defs>
<radialGradient id="paint0_radial" cx="0" cy="0" r="1" gradientUnits="userSpaceOnUse" gradientTransform="translate(8.70831 0.221666) rotate(90) scale(16.8942 21.6062)">
<stop stop-color="#484848" stop-opacity="0.84"/>
<stop offset="1" stop-color="#101010"/>
<stop offset="1" stop-color="#2C2C2C"/>
</radialGradient>
<radialGradient id="paint1_radial" cx="0" cy="0" r="1" gradientUnits="userSpaceOnUse" gradientTransform="translate(0 -9.88) rotate(90) scale(36.86 259.274)">
<stop stop-color="#484848" stop-opacity="0.84"/>
<stop offset="1" stop-color="#101010"/>
<stop offset="1" stop-color="#2C2C2C"/>
</radialGradient>
</defs>
</svg>
